<svg xmlns="http://www.w3.org/2000/svg" width="1440" height="220" fill="none"><g clip-path="url(#a)"><path stroke="url(#b)" stroke-linecap="round" stroke-linejoin="round" stroke-miterlimit="10" stroke-opacity=".6" stroke-width="1.889" d="M23.864 218.393 35.05 220m-11.186-1.607h33.15m-33.15 0-11.558-1.66m11.558 1.66H.387M35.05 220l-4.07-.001-4.028-.003-3.945-.01-3.82-.019-3.656-.032-3.45-.047-3.204-.065-2.975-.083-2.552-.116-2.324-.133-.639-.047v-1.051M35.05 220h32.617m0 0h32.616m-32.616 0-10.654-1.607m43.27 1.607H132.9m-32.617 0-10.12-1.607M132.9 220h32.617m-32.617 0-9.588-1.607M165.517 220h32.616m-32.616 0-9.056-1.607M198.133 220h32.617m-32.617 0-8.523-1.607M230.75 220h32.617m-32.617 0-7.99-1.607M263.367 220h32.616m-32.616 0-7.458-1.607M295.983 220H328.6m-32.617 0-6.924-1.607M328.6 220h32.617m-32.617 0-6.392-1.607M361.217 220h32.616m-32.616 0-5.86-1.607M393.833 220h32.617m-32.617 0-5.326-1.607M426.45 220h32.617m-32.617 0-1.184-.397-1.794-.601-1.816-.609M459.067 220h32.616m-32.616 0-1.052-.397-3.209-1.21M491.683 220H524.3m-32.617 0-3.728-1.607M524.3 220h32.617m-32.617 0-1.186-.597-1.202-.603-.403-.203-.405-.204M556.917 220h32.616m-32.616 0-.989-.597-.332-.2-.334-.201-1.009-.609m35.28 1.607h32.617m-32.617 0-2.131-1.607M622.15 220l-.197-.198-.197-.199-1.001-1.006-.203-.204M622.15 220h32.616m0 0h32.618m-32.618 0-1.065-1.607M687.384 220H720m-32.616 0-.198-.597-.335-1.01M720 220h32.616M720 220v-1.607M752.616 220h32.618m-32.618 0 .198-.597.335-1.01M785.234 220h32.616m-32.616 0 1.065-1.607M817.85 220l.197-.198.197-.199 1.001-1.006.203-.204M817.85 220h32.616m0 0h32.618m-32.618 0 1.861-1.403.271-.204M883.084 220H915.7m-32.616 0 .988-.597.332-.2.669-.403.336-.203.338-.204M915.7 220h32.617m-32.617 0 1.186-.597 1.201-.603.404-.203.405-.204M948.317 220h32.616m-32.616 0 3.728-1.607M980.933 220h32.617m-32.617 0 1.052-.397 3.209-1.21M1013.55 220h32.62m-32.62 0 4.79-1.607m27.83 1.607h32.61m-32.61 0 5.32-1.607m27.29 1.607h32.62m-32.62 0 5.86-1.607M1111.4 220h32.62m-32.62 0 6.39-1.607m26.23 1.607h32.61m-32.61 0 6.92-1.607m25.69 1.607h32.62m-32.62 0 7.46-1.607m25.16 1.607h32.62m-32.62 0 7.99-1.607m24.63 1.607h32.61m-32.61 0 8.52-1.607m24.09 1.607h32.62m-32.62 0 9.06-1.607M1307.1 220h32.62m-32.62 0 9.59-1.607m23.03 1.607h32.61m-32.61 0 10.12-1.607m22.49 1.607h32.62m-32.62 0 10.66-1.607m21.96 1.607 4.07-.001 4.03-.003 3.94-.01 3.82-.019 3.66-.031 3.45-.047 3.2-.066 2.98-.083 2.55-.115 2.32-.134.64-.047v-1.051M1404.95 220l11.19-1.607m-66.3 0h-33.15m33.15 0h33.15m-33.15 0 10.45-1.659m-43.6 1.659 9.91-1.659m-9.91 1.659h-33.15m-66.3 0h-33.15m33.15 0h33.15m-33.15 0 2.04-.41 6.22-1.249m-41.41 1.659 7.71-1.659m-7.71 1.659h-33.15m-66.3 0h-33.15m33.15 0h33.15m-33.15 0 1.5-.41.75-.205 3.81-1.044m-39.21 1.659.68-.204.68-.206 4.15-1.249m-5.51 1.659h-33.15m-66.295 0 .475-.204 3.378-1.455m-3.853 1.659h-33.149m33.149 0h33.149m-66.298 0 .815-.41.411-.205.411-.208 1.665-.836m-3.302 1.659h-33.149m-66.299 0h-33.149m33.149 0h33.15m-33.15 0 1.651-1.659m-34.8 1.659.135-.204.136-.206.137-.205.414-.624.278-.42m-1.1 1.659h-33.15m-66.298 0h-33.15m33.15 0H720m-33.149 0-.551-1.659m-32.599 1.659-.135-.204-.136-.206-.137-.205-.692-1.044m1.1 1.659h-33.149m-66.299 0h-33.149m33.149 0h33.149m-33.149 0-.679-.41-1.376-.829-.347-.21-.35-.21m-30.397 1.659-.815-.41-.411-.206-.412-.207-1.664-.836m3.302 1.659h-33.149m-66.299 0h-33.149m33.149 0h33.15m-33.15 0-1.223-.41-.616-.206-3.114-1.043m-28.196 1.659-.679-.204-.68-.206-4.145-1.249m5.504 1.659h-33.15m-66.298 0h-33.15m33.15 0h33.149m-33.149 0-1.767-.41-.889-.206-4.499-1.043m-25.995 1.659-7.705-1.659m7.705 1.659H222.76m-66.299 0h-33.149m33.149 0h33.149m-33.149 0-9.356-1.659m-23.793 1.659-9.907-1.659m9.907 1.659h-33.15m1349.568-15.024h-.12m-33.25 0-12.65 2.12m12.65-2.12 13.14-2.202m-13.14 2.202h-38.13m38.13 0h33.25m-45.9 2.12h37.43m-37.43 0-12.2 2.044m12.2-2.044h-37.43m74.86 0-12.88 2.044m12.88-2.044h8.47m-8.47 0 8.47-1.345m-45.75 7.262h-35.47m35.47 0-11.57 1.837m11.57-1.837h35.46m-35.46 0 11.98-1.902m-47.45 1.902-10.96 1.837m10.96-1.837 11.35-1.902m-11.35 1.902h-35.46m59.36 1.837h-34.86m34.86 0-11.19 1.775m11.19-1.775h34.85m-69.71 0h-34.86m34.86 0-10.59 1.775m103.14-45.118h-.37m-30.4 0-16.32 3.515m16.32-3.515 17.13-3.69m-17.13 3.69h-49.23m49.23 0h30.4m-46.72 3.515-15.57 3.353m15.57-3.353h-48.06m48.06 0h46.72m-15.33 3.353h-46.96m46.96 0-15.93 3.202m15.93-3.202h15.33m-15.33 0 15.33-3.083m-46.48 9.345h-44.87m44.87 0-14.56 2.927m14.56-2.927h44.88m-44.88 0 15.22-3.06m-60.09 3.06-13.59 2.927m13.59-2.927 14.2-3.06m-14.2 3.06h-44.88m75.19 2.927h-43.9m43.9 0h43.91m-43.91 0-13.94 2.803m-29.96-2.803-13.01 2.803m13.01-2.803h-43.91m47.68 8.068h-41.23m41.23 0-12.31 2.476m12.31-2.476h41.23m-41.23 0 12.83-2.578m-54.06 2.578-11.49 2.476m11.49-2.476 11.97-2.578m-11.97 2.578h-41.23m70.15 2.476h-40.41m40.41 0h40.41m-40.41 0-11.83 2.378m-28.58-2.378-11.04 2.378m11.04-2.378h-40.41m46.66 6.868h-38.13m38.13 0-10.55 2.12m10.55-2.12h38.13m-38.13 0 10.95-2.202m-49.08 2.202-9.85 2.12m9.85-2.12 10.22-2.202m-10.22 2.202h-38.13m65.71 2.12h-37.43m37.43 0h37.43m-37.43 0-10.16 2.044m-27.27-2.044-9.48 2.044m9.48-2.044h-37.42m45.42 5.917h-35.46m35.46 0-9.13 1.837m9.13-1.837h35.47m-35.47 0 9.46-1.902m-44.92 1.902-8.53 1.837m8.53-1.837 8.83-1.902m-8.83 1.902h-35.47m61.8 1.837H1208m34.86 0-8.83 1.775m8.83-1.775h34.85m-69.71 0h-34.86m34.86 0-8.24 1.775m214.63-106.067-22.97 6.927m22.97-6.927 24.6-7.418m-24.6 7.418h-69.44m69.44 0h25.22m-48.19 6.927-21.5 6.484m21.5-6.484h-67.14m67.14 0h48.19m-47.72 18.28h-61.08m61.08 0-19.63 5.382m19.63-5.382 20.84-5.715m-20.84 5.715h47.72m-108.8 0-17.85 5.382m17.85-5.382 18.95-5.715m-18.95 5.715h-61.08m102.53 5.382h-59.3m59.3 0h59.3m-59.3 0-18.51 5.076m-40.79-5.076-16.83 5.076m16.83-5.076h-59.29m66.03 14.409h-54.52m54.52 0-15.69 4.301m15.69-4.301h54.52m-54.52 0 16.55-4.538m-71.07 4.538-14.26 4.301m14.26-4.301 15.05-4.538m-15.05 4.538h-54.52m93.35 4.301h-53.09m53.09 0h53.1m-53.1 0-14.88 4.081m-38.21-4.081-13.53 4.081m13.53-4.081h-53.09m63.69 11.65h-49.23m49.23 0-12.82 3.515m12.82-3.515h49.23m-49.23 0 13.46-3.691m-62.69 3.691-11.65 3.515m11.65-3.515 12.24-3.691m-12.24 3.691h-49.23m85.64 3.515h-48.06m48.06 0h48.06m-48.06 0-12.23 3.353m-35.83-3.353-11.12 3.353m11.12-3.353h-48.07m61.06 9.614h-44.87m44.87 0-10.68 2.928m10.68-2.928h44.88m-44.88 0 11.16-3.059m-56.03 3.059-9.71 2.928m9.71-2.928 10.14-3.059m-10.14 3.059h-44.88m79.07 2.928h-43.9m43.9 0h43.91m-43.91 0-10.22 2.803m-33.68-2.803-9.3 2.803m9.3-2.803h-43.91m58.38 8.068h-41.22m41.22 0-9.02 2.476m9.02-2.476h41.23m-41.23 0 9.41-2.578m-50.63 2.578-1.05.315-7.16 2.161m8.21-2.476 8.54-2.578m-8.54 2.578h-41.23m73.43 2.476h-40.41m40.41 0h40.4m-40.4 0-8.68 2.378m-31.73-2.378-7.89 2.378m7.89-2.378h-40.41m55.76 6.868h-38.13m38.13 0-7.73 2.12m7.73-2.12h38.14m-38.14 0 8.04-2.202m-46.17 2.202-7.03 2.12m7.03-2.12 2.71-.816 4.59-1.386m-7.3 2.202h-38.13m68.53 2.12h-37.43m37.43 0h37.43m-37.43 0-7.45 2.044m-29.98-2.044-6.77 2.044m6.77-2.044h-37.43m53.28 5.917h-35.47m35.47 0-6.7 1.837m6.7-1.837h35.46m-35.46 0 6.94-1.902m-42.41 1.902-4.59 1.384-.75.227-.75.226m6.09-1.837 6.31-1.902m-6.31 1.902h-35.46m64.23 1.837h-34.86m34.86 0-6.47 1.775m6.47-1.775h34.86m-69.72 0h-34.86m34.86 0-5.88 1.775m326.54-184.976h-95.6m95.6 0-30.1 12.97m30.1-12.97 33.08-14.252m-33.08 14.252h50.38m-145.98 0-25.81 12.97m25.81-12.97 28.35-14.252m-28.35 14.252h-95.61m161.11 12.97h-91.31m91.31 0-27.51 11.852m27.51-11.853h80.48m-171.79 0-23.58 11.853m23.58-11.853h-91.3m106.61 32.74h-80.44m80.44 0-21.46 9.25m21.46-9.25h80.45m-80.45 0 23.24-10.012M1202.69 75.75 1184.28 85m18.41-9.25 19.92-10.012m-19.92 10.012h-80.45M1261.67 85h-77.39m77.39 0h77.38m-77.38 0-19.9 8.57M1184.28 85l-17.05 8.57m17.05-8.57h-77.38m99.17 23.95h-69.44m69.44 0-16.08 6.927m16.08-6.927h69.44m-69.44 0 17.22-7.418m-86.66 7.418-13.78 6.927m13.78-6.927 14.76-7.418m-14.76 7.418h-69.43m122.79 6.927h-67.14m67.14 0h67.15m-67.15 0-15.04 6.484m-52.1-6.484-12.9 6.484m12.9-6.484h-67.14m91.86 18.28h-61.09m61.09 0-12.5 5.382m12.5-5.382h61.08m-61.08 0 13.26-5.715m-74.35 5.715-10.7 5.382m10.7-5.382 11.37-5.715m-11.37 5.715h-61.08m109.67 5.382h-59.29m59.29 0h59.3m-59.3 0-11.78 5.076m-47.51-5.076-10.1 5.076m10.1-5.076h-59.3m85.15 14.409h-54.52m54.52 0-9.98 4.301m9.98-4.301h54.52m-54.52 0 10.53-4.538m-65.05 4.538-8.56 4.301m8.56-4.301 9.03-4.538m-9.03 4.538h-54.519m99.059 4.301h-53.1m53.1 0h53.09m-53.09 0-9.48 4.081m-43.62-4.081-8.12 4.081m8.12-4.081h-53.089m79.139 11.65h-49.22m49.22 0-8.16 3.515m8.16-3.515h49.23m-49.23 0 8.57-3.691m-57.79 3.691-7 3.515m7-3.515 7.34-3.691m-7.34 3.691h-49.234m90.294 3.515h-48.06m48.06 0h48.07m-48.07 0-7.78 3.353m-40.28-3.353-6.67 3.353m6.67-3.353h-48.062m73.812 9.614h-44.877m44.877 0-6.8 2.928m6.8-2.928H1079m-44.87 0 7.1-3.059m-51.977 3.059-5.823 2.928m5.823-2.928 6.088-3.059m-6.088 3.059h-44.875m82.952 2.928h-43.9m43.9 0h43.91m-43.91 0-6.5 2.803m-37.4-2.803-5.578 2.803m5.578-2.803h-43.906m69.086 8.068h-41.234m41.234 0-5.75 2.476m5.75-2.476h41.23m-41.23 0 5.98-2.578m-47.214 2.578.631-.316 4.499-2.262m-5.13 2.578-4.924 2.476m4.924-2.476h-41.229m76.713 2.476h-40.408m40.408 0h40.41m-40.41 0-5.521 2.378m-34.887-2.378-4.733 2.378m4.733-2.378h-40.409m64.876 6.868h-38.131m38.131 0-4.922 2.12m4.922-2.12h38.131m-38.131 0 5.11-2.202m-43.241 2.202-4.219 2.12m4.219-2.12 1.623-.816 1.095-.551 1.662-.835m-4.38 2.202h-38.131m71.34 2.12h-37.428m37.428 0h37.433m-37.433 0-4.743 2.044m-32.685-2.044-1.542.775-1.017.511-1.507.758m4.066-2.044h-37.428m61.122 5.917h-35.465m35.465 0-3.211 1.384-1.052.453m4.263-1.837h35.467m-35.467 0 3.855-1.66.56-.242m-39.88 1.902-2.754 1.384-.451.227-.45.226m3.655-1.837 1.875-.942 1.909-.96m-3.784 1.902h-35.467M964 213.243h-34.857m34.857 0-4.119 1.775m4.119-1.775h34.857m-69.714 0h-34.857m34.857 0-3.531 1.775m81.198-184.976h-95.601m95.601 0-12.898 12.97m12.898-12.97h95.61m-95.61 0 14.18-14.252M911.209 30.042l-8.601 12.97m8.601-12.97 9.451-14.252m-9.451 14.252h-95.605m178.308 12.97h-91.304m91.304 0h91.308m-91.308 0-11.791 11.852m-79.513-11.853-7.861 11.853m7.861-11.853h-91.304m150.039 32.74h-80.447m80.447 0-9.201 9.25m9.201-9.25h80.447m-80.447 0 9.961-10.012M880.896 75.75 874.762 85m6.134-9.25 6.639-10.012m-6.639 10.012h-80.449M952.142 85h-77.38m77.38 0h77.378m-77.378 0-8.525 8.57M874.762 85l-5.684 8.57m5.684-8.57h-77.381m130.936 23.95h-69.439m69.439 0-6.891 6.927m6.891-6.927h69.439m-69.439 0 7.379-7.418m-76.818 7.418-4.594 6.927m4.594-6.927 4.919-7.418m-4.919 7.418h-69.439m131.987 6.927h-67.142m67.142 0h67.142m-67.142 0-6.449 6.484m-60.693-6.484-4.3 6.484m4.3-6.484h-67.142m116.1 18.28h-61.08m61.08 0-5.353 5.381m5.353-5.381h61.081m-61.081 0 5.685-5.715m-66.765 5.715-3.569 5.381m3.569-5.381 3.79-5.715m-3.79 5.715h-61.081m116.808 5.381h-59.296m59.296 0h59.296m-59.296 0-5.049 5.077m-54.247-5.077-3.367 5.077m3.367-5.077h-59.297m104.259 14.41h-54.519m54.519 0-4.278 4.301m4.278-4.301h54.518m-54.518 0 4.514-4.538m-59.033 4.538-2.851 4.301m2.851-4.301 3.01-4.538m-3.01 4.538h-54.518m104.759 4.301h-53.092m53.092 0h53.092m-53.092 0-4.06 4.081m-49.032-4.081-2.707 4.081m2.707-4.081h-53.093m94.596 11.65h-49.229m49.229 0-3.497 3.515m3.497-3.515h49.229m-49.229 0 3.67-3.691m-52.899 3.691-2.332 3.515m2.332-3.515 2.447-3.691m-2.447 3.691h-49.23m94.962 3.515h-48.064m48.064 0h48.063m-48.063 0-1.27 1.276-2.066 2.077m-44.728-3.353-2.224 3.353m2.224-3.353h-48.064m86.564 9.614h-44.876m44.876 0-2.912 2.928m2.912-2.928h44.876m-44.876 0 2.269-2.282.775-.777m-47.92 3.059-.738 1.113-1.203 1.815m1.941-2.928 2.03-3.059m-2.03 3.059h-44.876m86.84 2.928-.355.357-2.434 2.446m2.789-2.803H807.81m43.905 0h43.905m-87.81 0-.707 1.065-.232.352-.233.349-.687 1.037m1.859-2.803h-43.905m79.784 8.068h-41.23m41.23 0-1.244 1.25-.307.309-.305.307-.305.306-.302.304m2.463-2.476h41.229m-41.229 0 2.564-2.578m-43.794 2.578-1.237 1.866-.203.306-.201.304m1.641-2.476 1.709-2.578m-1.709 2.578h-41.23m79.997 2.476h-40.408m40.408 0h40.409m-40.409 0-1.49 1.497-.293.296-.583.585m-38.042-2.378-.994 1.497-.196.296-.194.293-.194.292m1.578-2.378h-40.41m73.986 6.868h-38.132m38.132 0-2.11 2.12m2.11-2.12h38.132m-38.132 0 .54-.543.819-.824.831-.835m-40.322 2.202.18-.271 1.095-1.651.186-.28m-1.461 2.202-1.406 2.12m1.406-2.12h-38.131m74.153 2.12h-37.428m37.428 0h37.428m-37.428 0-2.033 2.044m-35.395-2.044-.514.775-.169.257-.17.254-.502.758m1.355-2.044h-37.428m68.97 5.917h-35.465m35.465 0-1.376 1.384-.45.453m1.826-1.837h35.467m-35.467 0 .703-.705.235-.237.238-.239.717-.721m-37.358 1.902-.155.233-.307.463-.305.46-.451.681m1.218-1.837.625-.942.157-.239.319-.48.16-.241m-1.261 1.902h-35.467m69.106 1.837h-34.857m34.857 0-1.548 1.556-.218.219m1.766-1.775h34.857m-69.714 0-.15.225-.149.224-.148.224-.147.222-.439.661-.145.219m1.178-1.775h-34.858m-130.461-183.2h-95.605m95.605 0 4.3 12.97m-4.3-12.97H720m-95.604 0L619.67 15.79m-90.879 14.252 8.601 12.97m-8.601-12.97L519.34 15.79m9.451 14.252h-95.605m195.51 12.97h-91.304m91.304 0H720m-91.304 0 3.93 11.852m-95.234-11.853 7.861 11.853m-7.861-11.853h-91.304m193.465 32.74h-80.449m80.449 0 3.066 9.25m-3.066-9.25H720m-80.447 0-3.321-10.012M559.104 75.75l6.134 9.25m-6.134-9.25-6.64-10.012m6.64 10.012h-80.447M642.619 85h-77.381m77.381 0H720m-77.381 0 2.842 8.57M565.238 85l5.684 8.57M565.238 85h-77.38m162.703 23.95h-69.439m69.439 0 2.297 6.927m-2.297-6.927H720m-69.439 0-2.46-7.418m-66.979 7.418 4.594 6.927m-4.594-6.927-4.919-7.418m4.919 7.418h-69.439m141.175 6.927h-67.142m67.142 0H720m-67.142 0 2.15 6.484m-69.292-6.484 4.299 6.484m-4.299-6.484h-67.142m140.345 18.28h-61.081m61.081 0 1.785 5.381m-1.785-5.381H720m-61.081 0-1.895-5.715m-59.186 5.715 3.569 5.381m-3.569-5.381-3.79-5.715m3.79 5.715h-61.08m123.946 5.381h-59.297m59.297 0H720m-59.296 0 1.683 5.077m-60.98-5.077 3.367 5.077m-3.367-5.077h-59.296m123.371 14.41h-54.518m54.518 0 1.426 4.301m-1.426-4.301H720m-54.518 0-1.505-4.538m-53.013 4.538 2.851 4.301m-2.851-4.301-3.01-4.538m3.01 4.538h-54.519m110.463 4.301h-53.093m53.093 0H720m-53.092 0 1.353 4.081m-54.446-4.081 2.707 4.081m-2.707-4.081h-53.092m110.048 11.65h-49.23m49.23 0 1.166 3.515m-1.166-3.515H720m-49.229 0-1.224-3.691m-48.006 3.691 2.332 3.515m-2.332-3.515-2.447-3.691m2.447 3.691h-49.229m99.625 3.515h-48.064m48.064 0H720m-48.063 0 1.111 3.353m-49.175-3.353 2.224 3.353m-2.224-3.353h-48.064m99.316 9.614h-44.876m44.876 0 .97 2.928m-.97-2.928H720m-44.875 0-1.015-3.059m-43.861 3.059 1.703 2.569.238.359m-1.941-2.928-2.03-3.059m2.03 3.059h-44.876m90.722 2.928.118.357.812 2.446m-.93-2.803H632.19m43.905 0H720m-87.81 0 .707 1.065.232.352.233.349.687 1.037m-1.859-2.803h-43.905m90.486 8.068h-41.23m41.23 0 .82 2.476m-.82-2.476H720m-41.229 0-.317-.954-.107-.321-.106-.323-.216-.652-.11-.328m-40.374 2.578 1.237 1.866.405.61m-1.642-2.476-1.709-2.578m1.709 2.578h-41.23m83.28 2.476h-40.408m40.408 0H720m-40.409 0 .789 2.378m-41.197-2.378.992 1.497.197.296.194.293.194.292m-1.577-2.378h-40.409m83.095 6.868h-38.131m38.131 0 .703 2.12m-.703-2.12H720m-38.131 0-.73-2.202m-37.401 2.202-.18-.271-1.095-1.651-.186-.28m1.461 2.202 1.406 2.12m-1.406-2.12h-38.132m76.966 2.12h-37.428m37.428 0H720m-37.428 0 .677 2.044m-38.105-2.044.514.775.169.256.17.255.502.758m-1.355-2.044h-37.428m76.817 5.917h-35.466m35.466 0 .61 1.837m-.61-1.837H720m-35.467 0-.63-1.902m-34.836 1.902.155.233.308.463.152.231.303.457.15.227.151.226m-1.219-1.837-.625-.942-.157-.239-.319-.48-.16-.241m1.261 1.902h-35.466m71.542 1.837.074.225.075.224.074.224.365 1.102m-.588-1.775h-34.857m34.857 0H720m-69.714 0h-34.858m34.858 0 .298.449.148.224.147.222.438.661.146.219M241.977 30.042h-95.604m95.604 0 21.503 12.97m-21.503-12.97h95.604m-95.604 0L218.348 15.79m-71.975 14.252 25.803 12.97m-25.803-12.97L118.019 15.79m28.354 14.252H50.768m212.712 12.97h-91.304m91.304 0h91.304m-91.304 0 19.651 11.852M172.176 43.011l23.582 11.853m-23.582-11.853H80.872m236.889 32.74h-80.448m80.448 0 15.335 9.25m-15.335-9.25h80.448m-80.448 0-16.6-10.012M237.313 75.75 255.715 85m-18.402-9.25-19.92-10.012m19.92 10.012h-80.447M333.096 85h-77.381m77.381 0h77.381m-77.381 0 14.208 8.57M255.715 85l17.05 8.57M255.715 85h-77.381m194.47 23.95h-69.439m69.439 0 11.486 6.927m-11.486-6.927h69.44m-69.44 0-12.298-7.418m-57.141 7.418 13.782 6.927m-13.782-6.927-14.758-7.418m14.758 7.418h-69.439m150.364 6.927h-67.143m67.143 0h67.142m-67.142 0 10.749 6.484m-77.892-6.484 12.899 6.484m-12.899-6.484h-67.142m164.591 18.28h-61.08m61.08 0 8.922 5.381m-8.922-5.381h61.081m-61.081 0-9.475-5.715m-51.605 5.715 10.706 5.381m-10.706-5.381-11.371-5.715m11.371 5.715h-61.081m131.083 5.381h-59.296m59.296 0h59.297m-59.297 0 8.416 5.077m-67.712-5.077 10.099 5.077m-10.099-5.077h-59.296m142.483 14.41H392.89m54.519 0 7.13 4.301m-7.13-4.301h54.518m-54.518 0-7.524-4.538m-46.995 4.538 8.556 4.301m-8.556-4.301-9.029-4.538m9.029 4.538h-54.519m116.168 4.301h-53.093m53.093 0h53.092m-53.092 0 6.766 4.081m-59.859-4.081 8.12 4.081m-8.12-4.081h-53.092m125.5 11.65h-49.229m49.229 0 5.828 3.515m-5.828-3.515h49.229m-49.229 0-6.119-3.691m-43.11 3.691 6.994 3.515m-6.994-3.515-7.343-3.691m7.343 3.691h-49.229m104.286 3.515h-48.063m48.063 0h48.064m-48.064 0 5.559 3.353m-53.622-3.353 6.671 3.353m-6.671-3.353h-48.063m112.066 9.614-.622-.375-.626-.377-3.825-2.307m5.073 3.059h-44.876m44.876 0 4.853 2.928m-4.853-2.928h44.875m-89.751 0 5.824 2.928m-5.824-2.928-6.087-3.059m6.087 3.059H405.87m94.605 2.928H456.57m43.905 0h43.905m-43.905 0 4.648 2.803m-48.553-2.803 5.578 2.803m-5.578-2.803h-43.905m101.188 8.068h-41.23m41.23 0 4.104 2.476m-4.104-2.476h41.229m-41.229 0-4.274-2.578m-36.956 2.578 3.102 1.559 1.823.917m-4.925-2.476-5.129-2.578m5.129 2.578h-41.23m86.564 2.476h-40.409m40.409 0h40.408m-40.408 0 3.458 2.086.485.292m-44.352-2.378 4.732 2.378m-4.732-2.378h-40.409m92.204 6.868h-38.131m38.131 0 .891.537 2.625 1.583m-3.516-2.12h38.131m-38.131 0-.899-.543-1.826-1.101-.925-.558m-34.481 2.202 4.219 2.12m-4.219-2.12-1.623-.816-1.095-.551-1.662-.835m4.38 2.202h-38.131m79.778 2.12h-37.428m37.428 0h37.429m-37.429 0 2.553 1.54.836.504m-40.817-2.044 1.542.775 1.017.511 1.507.758m-4.066-2.044h-37.428m84.666 5.917h-35.467m35.467 0 1.916 1.156 1.129.681m-3.045-1.837h35.466m-35.466 0-3.154-1.902m-32.313 1.902 2.754 1.384.451.227.45.226m-3.655-1.837-1.875-.942-1.909-.96m3.784 1.902h-35.465m73.977 1.837h-34.857m34.857 0 1.484.895.732.442.364.219.362.219m-2.942-1.775h34.857m-69.714 0H476m34.857 0 3.531 1.775M23.572 85.001h77.381m-77.38 0 25.574 8.57M23.573 85H.387m23.186 0L.387 77.23m94.661 31.72H25.609m69.439 0 20.672 6.927m-20.672-6.927h69.439m-69.439 0-22.137-7.418m-47.302 7.418 22.97 6.927m-22.97-6.927-24.597-7.418m24.597 7.418H.387m115.333 6.927H48.578m67.142 0h67.142m-67.142 0 19.35 6.484m-86.492-6.484 21.5 6.484m-21.5-6.484H.388m169.886 18.28h-61.081m61.081 0 16.059 5.381m-16.059-5.381h61.081m-61.081 0-17.057-5.715m-44.024 5.715 17.843 5.381m-17.843-5.381-18.951-5.715m18.951 5.715H48.112m138.221 5.381h-59.297m59.297 0h59.296m-59.296 0 15.148 5.076m-74.445-5.076 16.832 5.076m-16.832-5.076H67.74m161.595 14.41h-54.518m54.518 0 12.834 4.301m-12.834-4.301h54.518m-54.518 0-13.543-4.538m-40.975 4.538 14.26 4.301m-14.26-4.301-15.048-4.538m15.048 4.538h-54.519m121.871 4.301h-53.092m53.092 0h53.092m-53.092 0 12.18 4.081m-65.272-4.081 13.534 4.081m-13.534-4.081h-53.092m140.952 11.65h-49.229m49.229 0 10.491 3.515m-10.491-3.515h49.229m-49.229 0-11.013-3.691m-38.216 3.691 11.657 3.515m-11.657-3.515-12.237-3.691m12.237 3.691h-49.229m108.949 3.515h-48.063m48.063 0h48.064m-48.064 0 10.007 3.353m-58.07-3.353 11.118 3.353m-11.118-3.353h-48.064m124.818 9.614h-44.875m44.875 0 8.737 2.928m-8.737-2.928h44.876m-44.876 0-9.131-3.059m-35.744 3.059 9.707 2.928m-9.707-2.928-10.146-3.059m10.146 3.059h-44.876m98.488 2.928h-43.905m43.905 0h43.904m-43.904 0 8.366 2.803m-52.271-2.803 9.296 2.803m-9.296-2.803h-43.905m111.889 8.068h-41.229m41.229 0 7.387 2.476m-7.387-2.476h41.229m-41.229 0-7.694-2.578m-33.535 2.578 8.207 2.476m-8.207-2.476-8.55-2.578m8.55 2.578h-41.231m89.847 2.476h-40.409m40.409 0h40.409m-40.409 0 7.099 2.378m-47.508-2.378 7.888 2.378m-7.888-2.378h-40.409m101.314 6.868h-38.131m38.131 0 6.328 2.12m-6.328-2.12h38.131m-38.131 0-1.62-.543-.814-.273-4.137-1.386m-31.56 2.202 7.031 2.12m-7.031-2.12-7.301-2.202m7.301 2.202h-38.131m82.59 2.12h-37.428m37.428 0h37.428m-37.428 0 6.099 2.044m-43.527-2.044 6.777 2.044m-6.777-2.044H308.29m92.514 5.917h-35.466m35.466 0 5.482 1.837m-5.482-1.837h35.466m-35.466 0-5.677-1.902m-29.789 1.902 4.588 1.384.752.227.751.226m-6.091-1.837-6.308-1.902m6.308 1.902h-35.466m76.414 1.837h-34.857m34.857 0 4.643 1.556.653.219m-5.296-1.775h34.857m-69.714 0h-34.858m34.858 0 5.884 1.775M11.262 153.949 29.8 158.25m-18.538-4.301H65.78m-54.518 0L.387 151.426m10.875 2.523H.387M29.8 158.25h53.093m-53.093 0 17.593 4.081M29.8 158.25H.387M80.02 169.9H30.79m49.23 0 15.155 3.515M80.02 169.9h49.229m-49.229 0-15.908-3.691M30.79 169.9l16.32 3.515M30.79 169.9l-17.13-3.691m17.13 3.691H.387m94.788 3.515H47.11m48.064 0h48.063m-48.063 0 14.453 3.353m-62.517-3.353 15.565 3.353m-15.565-3.353H.387m136.23 9.614H91.741m44.876 0 12.619 2.928m-12.619-2.928h44.875m-44.875 0-13.19-3.059m-31.686 3.059 13.59 2.928m-13.59-2.928-14.204-3.059m14.204 3.059H46.865m102.371 2.928h-43.905m43.905 0h43.905m-43.905 0 12.085 2.803m-55.99-2.803 13.014 2.803m-13.014-2.803H61.426m122.591 8.068h-41.229m41.229 0 10.67 2.476m-10.67-2.476h41.229m-41.229 0-11.113-2.578m-30.116 2.578 11.49 2.476m-11.49-2.476-11.968-2.578m11.968 2.578h-41.231m93.13 2.476h-40.409m40.409 0h40.409m-40.409 0 10.254 2.378m-50.663-2.378 11.043 2.378m-11.043-2.378H113.87m110.423 6.868h-38.132m38.132 0 9.14 2.12m-9.14-2.12h38.131m-38.131 0-9.491-2.202m-28.641 2.202 9.844 2.12m-9.844-2.12-10.22-2.202m10.22 2.202H148.03m85.403 2.12h-37.428m37.428 0h37.429m-37.429 0 8.81 2.044m-46.238-2.044 9.488 2.044m-9.488-2.044h-37.428m100.362 5.917h-35.466m35.466 0 7.918 1.837m-7.918-1.837h35.466m-35.466 0-8.199-1.902m-27.267 1.902 8.527 1.837m-8.527-1.837-8.831-1.902m8.831 1.902h-35.467m78.851 1.837H232m34.857 0 7.65 1.775m-7.65-1.775h34.857m-69.714 0h-34.858m34.858 0 8.239 1.775m-221.14-20.993 13.954 2.476m-13.954-2.476h41.23m-41.23 0-14.533-2.578m14.533 2.578H.387m32.666 2.476H73.46m-40.408 0 13.408 2.378m-13.408-2.378H.387m71.38 6.868h-38.13m38.13 0 11.954 2.12m-11.953-2.12h38.131m-38.131 0-12.411-2.202m-25.72 2.202 12.656 2.12m-12.657-2.12-13.14-2.202m13.14 2.202H.387m83.334 2.12H46.293m37.428 0h37.428m-37.428 0 11.52 2.044m-48.948-2.044 12.198 2.044m-12.198-2.044H8.865m108.209 5.917H81.608m35.466 0 10.354 1.837m-10.354-1.837h35.467m-35.467 0-10.722-1.902m-24.744 1.902 10.963 1.837m-10.963-1.837-11.353-1.902m11.353 1.902H46.14m81.287 1.837H92.571m34.857 0 10.004 1.775m-10.004-1.775h34.857m-69.714 0H57.714m34.857 0 10.593 1.775m-32.909-5.514-11.764-1.971m11.764 1.971H34.158m36.097 0h36.097m-60.21 1.902 11.572 1.837m-11.573-1.837-11.983-1.902m11.983 1.902H10.676m47.038 1.837H22.857m34.857 0 11.181 1.775m34.269 0h34.268m-34.268 0H68.895m34.269 0 10.241 1.716m-79.247-7.23-12.418-1.971m12.418 1.971H.388m10.288 1.902 12.18 1.837m-12.18-1.837L.387 209.855m10.289 1.551H.387m22.47 1.837 11.77 1.775m-11.77-1.775H.387m68.508 1.775H34.627m34.268 0 10.81 1.716m-45.078-1.716 11.379 1.716m-11.38-1.716H.388m58.104-7.485H21.74m36.75 0h36.751m-86.376-2.044 12.875 2.044m-12.875-2.044-8.478-1.345m8.478 1.345H.387m21.353 2.044H.387m94.854 0h36.751m-36.75 0 11.11 1.971m0 0h36.097m-121.954-8.337-13.654-2.288m13.654 2.288h38.862m-38.862 0H.387m-.116 2.202h.116m6.454-4.49h39.62m-39.62 0-6.454-1.081m6.454 1.081H.387m46.074 0h39.62m-39.62 0 12.896 2.288m0 0h38.861m116.424 8.337-9.149-1.971m9.149 1.971h-36.096m36.096 0h36.098m-62.734 1.902 9.136 1.837m-9.136-1.837-9.46-1.902m9.46 1.902h-35.465m44.601 1.837h-34.857m34.857 0 8.828 1.775m34.269 0H205.97m34.269 0 7.965 1.716m-7.965-1.716h34.268m-95.961-5.514-9.804-1.971m9.804 1.971h-36.097m10.092 1.902 9.744 1.837m-9.744-1.837-10.092-1.902m19.836 3.739 9.416 1.775m34.269 0h-34.269m34.269 0 8.534 1.716m-72.055-7.23-10.457-1.971m5.44 7.485h34.269m-34.269 0 9.673 1.716m24.596-1.716 9.104 1.716m24.688-9.201h-36.751m36.751 0h36.75m-83.666-2.044 10.165 2.044m-10.165-2.044-10.547-2.12m10.547 2.12h-37.428m47.593 2.044h-36.75m110.251 0h36.751m-36.751 0 8.497 1.971m-118.748-1.971-10.843-2.044m129.591 4.015h36.097m-138.807-6.135-10.951-2.202m10.951 2.202h-38.131m11.25 2.12-11.25-2.12m0 0-11.681-2.202m77.723 0-10.62-2.288m10.62 2.288h-38.862m38.862 0h38.861m-77.723 0-11.378-2.288m11.378 2.288H98.218m0 0-12.137-2.288m79.24 0h-39.62m39.62 0h39.62m-91.071-2.378 11.831 2.378m-11.831-2.378-12.313-2.476m12.313 2.476H73.461m52.24 2.378h-39.62m118.86 0h39.62m-39.62 0 9.861 2.288m-128.72-2.288-12.62-2.378m141.34 4.666h38.861m-152.106-7.142-12.822-2.578m12.822 2.578H60.328m13.133 2.476-13.133-2.476m0 0-13.677-2.578m84.169 0-12.475-2.687m12.475 2.687H88.735m42.085 0h42.084m-84.17 0L75.37 188.76m13.365 2.687H46.65m0 0-14.257-2.687m14.257 2.687H4.566m0 0H.387m4.18 0-4.18-.741m117.958-1.946H75.37m42.975 0h42.976m-99.895-2.803 13.944 2.803m-13.944-2.803-14.56-2.928m14.56 2.928H17.52m57.849 2.803H32.394m128.927 0h42.975m-42.975 0 11.583 2.687m-140.51-2.687-14.873-2.803m14.873 2.803H.388m172.517 2.687h42.084m-168.123-8.418-15.218-3.059m15.218 3.059H1.99m15.531 2.928-15.53-2.928m15.53 2.928H.387m-.224 2.803h.224m1.603-5.731-1.603-.302m1.603.302H.387m77.15-3.059-14.861-3.202m14.861 3.202h-45.89m45.89 0h45.89m-91.78 0-15.923-3.202m15.923 3.202H.387M0 182.654l.387.073m62.289-5.959H15.724m46.952 0h46.952m-93.904 0H.387m15.337 0L.387 173.685m109.241 3.083h46.951m-46.951 0 13.799 3.202m0 0h45.89M13.659 166.209h50.453m-50.453 0L.387 163.351m13.272 2.858H.387M.022 169.9h.365m63.725-3.691h50.453m-50.453 0-16.719-3.878m-47.152.988.146.032m358.643 46.153-6.535-1.971m6.535 1.971h-36.096m36.096 0h36.097m-65.255 1.902 6.699 1.837m-6.699-1.837-6.938-1.902m6.938 1.902h-35.467m42.166 1.837h-34.857m34.857 0 6.473 1.775m34.269 0h-34.269m34.269 0 2.157.65 3.533 1.066m-5.69-1.716h34.269m-88.648-5.514-7.19-1.971m7.19 1.971h-36.097m7.568 1.902 7.309 1.837m-7.309-1.837-7.568-1.902m14.877 3.739 7.062 1.775m34.268 0h-34.268m34.268 0 6.259 1.716m-62.466-7.23-7.843-1.971m-4.487 7.485 7.397 1.716m-7.397-1.716h34.269m0 0 .866.217 1.722.433 4.239 1.066m36.892-9.201h-36.751m36.751 0h36.75m-80.955-2.044 7.454 2.044m-7.454-2.044-7.734-2.12m7.734 2.12h-37.428m44.882 2.044h-36.75m110.251 0h36.751m-36.751 0 5.882 1.971m-116.133-1.971-8.132-2.044m124.265 4.015h36.098m-130.669-6.135-8.031-2.202m8.031 2.202h-38.132m8.438 2.12-1.038-.26-7.4-1.86m0 0-8.761-2.202m77.723 0-.932-.281-6.653-2.007m7.585 2.288h-38.861m38.861 0h38.861m-77.722 0-8.344-2.288m8.344 2.288h-38.862m0 0-9.102-2.288m79.24 0h-39.62m39.62 0h39.62m-87.917-2.378 8.677 2.378m-8.677-2.378-9.029-2.476m9.029 2.476h-40.408m49.085 2.378h-39.62m118.86 0h39.62m-39.62 0 6.826 2.288m-125.686-2.288-9.465-2.378m135.151 4.666h38.862m-142.634-7.142-9.402-2.578m9.402 2.578h-41.229m9.85 2.476-9.85-2.476m0 0-10.258-2.578m84.168 0-8.909-2.687m8.909 2.687h-42.083m42.083 0h42.085m-84.168 0-9.802-2.687m9.802 2.687h-42.085m0 0-10.692-2.687m85.951 0h-42.976m42.976 0h42.975m-96.176-2.803 10.225 2.803m-10.225-2.803-10.678-2.928m10.678 2.928h-43.905m54.13 2.803h-42.975m128.926 0h42.975m-42.975 0 8.019 2.687m-136.945-2.687-11.155-2.803m148.1 5.49h42.085m-156.958-8.418-11.16-3.059m11.16 3.059h-44.876m11.649 2.928-11.649-2.928m0 0-12.175-3.059m91.781 0-10.615-3.202m10.615 3.202h-45.89m45.89 0h45.89m-91.78 0-11.677-3.202m11.677 3.202h-45.891m0 0-12.738-3.202m93.904 0h-46.952m46.952 0h46.952m-106.134-3.353 12.23 3.353m-12.23-3.353-12.822-3.515m12.822 3.515h-48.063m60.293 3.353h-46.952m140.856 0h46.951m-46.951 0 9.553 3.202m-150.409-3.202-13.341-3.353m163.75 6.555h45.89M178.479 169.9l-13.461-3.691m13.461 3.691h-49.23m13.989 3.515-13.989-3.515m0 0-14.684-3.691m100.906 0-12.86-3.878m12.86 3.878h-50.453m50.453 0h50.453m-100.906 0-14.147-3.878m14.147 3.878h-50.453m0 0-15.433-3.878m103.479 0h-51.74m51.74 0h51.738m-118.364-4.081 14.886 4.081m-14.886-4.081-15.687-4.301m15.687 4.301H82.893m67.978 4.081H99.132m155.217 0h51.74m-51.74 0 11.575 3.878m-166.791-3.878-16.24-4.081m16.24 4.081h-51.74m218.531 3.878h50.453m-196.079-12.26-16.552-4.538m16.552 4.538H65.78m17.113 4.301-17.113-4.301m-18.387 8.382H.387m65.393-8.382-18.057-4.538m112.046 0-15.901-4.796m15.901 4.796h-56.023m56.023 0h56.023m-112.046 0-17.492-4.796m17.492 4.796H47.723m0 0-19.082-4.796m19.082 4.796H.387m143.481-4.796H86.254m57.614 0h57.613m-133.74-5.076 18.513 5.076m-18.514-5.076-19.628-5.381m19.628 5.381H8.444m77.81 5.076H28.641m172.84 0h57.613m-57.613 0 14.311 4.796m-187.15-4.796-20.198-5.076m20.197 5.076H.387m215.405 4.796h56.024M48.112 134.158l-20.846-5.715m20.846 5.715H.387m8.057 5.381H.387m8.057 0-8.057-2.024m89.855-9.072-20.165-6.081m20.165 6.081H27.266m62.976 0h62.975m-125.951 0-22.18-6.081m22.18 6.081H.387m69.69-6.081H5.085m64.992 0h64.993m-129.985 0-4.698-1.288m4.698 1.288H.387m134.683 0h64.992m-64.992 0 18.147 6.081m0 0h62.976M1.012 101.533H72.91m-71.9 0H.388m.625 0-.625-.188m72.524.188h71.898m-71.898 0L49.147 93.57m454.271 115.934-1.454-.731-.489-.246-1.978-.994m3.921 1.971h-36.097m36.097 0h36.097m-67.778 1.902 3.211 1.384 1.052.453m-4.263-1.837-3.856-1.661-.56-.241m4.416 1.902H436.27m39.73 1.837h-34.857m34.857 0 4.119 1.775m34.269 0h-34.269m34.269 0 1.294.65 2.12 1.066m-3.414-1.716h34.268m-81.335-5.514-1.128-.486-3.447-1.485m4.575 1.971h-36.096m5.045 1.902 4.873 1.837m-4.873-1.837-5.045-1.902m9.918 3.739 3.546 1.337 1.162.438m34.268 0h-34.268m34.268 0 3.983 1.716m-52.877-7.23-5.229-1.971m-14.414 7.485.649.218 4.472 1.498m-5.121-1.716h34.269m0 0 1.725.65 2.826 1.066m49.095-9.201h-36.751m36.751 0h36.751m-78.245-2.044 4.743 2.044m-4.743-2.044-4.922-2.12m4.922 2.12h-37.429m42.172 2.044h-36.75m110.252 0h36.75m-36.75 0 3.267 1.971m-113.519-1.971-5.422-2.044m118.941 4.015h36.097m-122.531-6.135-3.171-1.367-.644-.277-1.295-.558m5.11 2.202h-38.132m5.625 2.12-5.625-2.12m0 0-5.84-2.202m77.723 0-4.552-2.288m4.552 2.288h-38.861m38.861 0h38.861m-77.722 0-5.31-2.288m5.31 2.288h-38.862m0 0-6.068-2.288m79.239 0h-39.619m39.619 0h39.62m-84.761-2.378 3.477 1.497.684.296 1.361.585m-5.522-2.378-5.746-2.476m5.746 2.476h-40.408m45.93 2.378h-39.62m118.859 0h39.62m-39.62 0 3.793 2.288m-122.652-2.288-6.31-2.378m128.962 4.666h38.862m-133.162-7.142-5.984-2.578m5.984 2.578h-41.229m6.567 2.476-6.567-2.476m0 0-6.838-2.578m84.168 0-2.645-1.329-.67-.337-2.031-1.021m5.346 2.687h-42.085m42.085 0h42.085m-84.17 0-6.236-2.687m6.236 2.687h-42.083m0 0-7.129-2.687m85.951 0h-42.975m42.975 0h42.975m-92.458-2.803 6.508 2.803m-6.508-2.803-6.795-2.928m6.795 2.928H368.76m50.413 2.803h-42.976m128.926 0h42.976m-42.976 0 1.132.682 3.324 2.005m-133.382-2.687-7.437-2.803m140.819 5.49h42.083m-145.792-8.418-7.101-3.059m7.101 3.059h-44.875m7.765 2.928-7.765-2.928m0 0-8.117-3.059m91.781 0-6.369-3.202m6.369 3.202h-45.89m45.89 0h45.89m-91.78 0-7.431-3.202m7.431 3.202h-45.891m0 0-8.492-3.202m93.904 0h-46.952m46.952 0h46.951m-101.685-3.353 7.782 3.353m-7.782-3.353-8.16-3.515m8.16 3.515h-48.064m55.846 3.353h-46.952m140.855 0h46.952m-46.952 0 5.308 3.202m-146.163-3.202-8.894-3.353m155.057 6.555h45.89M375.396 169.9l-8.566-3.691m8.566 3.691h-49.23m9.326 3.515-9.326-3.515m0 0-9.789-3.691m100.905 0-7.716-3.878m7.716 3.878H366.83m50.452 0h50.453m-100.905 0-9.003-3.878m9.003 3.878h-50.453m0 0-10.288-3.878m103.477 0h-51.739m51.739 0h51.739m-112.951-4.081 9.473 4.081m-9.473-4.081-9.983-4.301m9.983 4.301h-53.093m62.566 4.081h-51.738m155.216 0h51.739m-51.739 0 6.43 3.878m-161.646-3.878-10.828-4.081m172.474 7.959h50.453m-179.817-12.26-10.533-4.538m10.533 4.538h-54.518m11.408 4.301-11.408-4.301m0 0-12.037-4.538m112.045 0-9.54-4.795m9.54 4.795h-56.023m56.023 0h56.024m-112.047 0-11.131-4.795m11.131 4.795h-56.022m0 0-12.722-4.796m115.227.001h-57.614m57.614 0h57.613m-127.008-5.077 11.781 5.077m-11.781-5.077-12.491-5.381m12.491 5.381h-59.297m71.078 5.077-57.613-.001m172.84.001h57.613m-57.613 0 7.951 4.795m-180.791-4.796-13.465-5.076m194.256 9.872h56.022m-203.472-15.253-13.266-5.715m13.266 5.715h-61.08m14.274 5.381-14.274-5.381m0 0-15.162-5.715m125.952 0-12.099-6.081m12.099 6.081h-62.976m62.976 0h62.976m-125.952 0-14.115-6.081m14.115 6.081h-62.976m0 0-16.131-6.081m129.984 0h-64.992m64.992 0h64.993m-145.034-6.484 15.049 6.484m-15.049-6.484-16.079-6.927m16.079 6.927h-67.143m82.192 6.484h-64.992m194.977 0h64.992m-64.992 0 10.082 6.081m-205.059-6.081-17.2-6.484m222.259 12.565h62.976m-234.171-19.492-17.218-7.418m17.218 7.418h-69.439m18.375 6.927-18.375-6.927m0 0-19.678-7.418m143.798 0-15.842-7.963m15.842 7.963h-71.899m71.899 0h71.899m-143.798 0-18.482-7.963m18.482 7.963h-71.899m0 0-21.123-7.963m149.079 0h-74.539m74.539 0h74.539M178.334 85l19.892 8.57M178.334 85l-21.468-9.249m21.468 9.25h-77.381m97.273 8.57h-74.54m223.618 0h74.54m-74.54 0 13.202 7.962m-236.82-7.963L100.953 85m22.733 8.57H49.147m311.359 7.963h71.899M156.866 75.751 133.625 65.74m23.241 10.012H76.418m24.535 9.25-24.535-9.25m-27.27 17.82H.387m76.03-17.82L49.858 65.74m26.56 10.012H.388M217.392 65.74l-21.635-10.875m21.635 10.875h-83.768m83.768 0h83.768m-167.536 0-25.241-10.875m25.241 10.875H49.857m0 0L21.01 54.864m28.847 10.875H.387m195.371-10.875h-87.374m87.374 0h87.373M80.871 43.011l27.513 11.853M80.872 43.011l-30.104-12.97m30.104 12.97H.387m107.997 11.853H21.01m262.121 0h87.374m-87.374 0 18.03 10.875M21.011 54.864H.386m20.623 0L.387 47.09m300.774 18.649h83.768M50.768 30.042 17.688 15.79m33.08 14.252H.388m117.63-14.252L86.716.056m31.303 15.734H17.689m100.33 0h100.329m-200.66 0L.388 8.336m17.3 7.454H.388M86.715.056h105.547m-105.547 0H.387m191.876 0H297.81m-105.547 0 26.085 15.734m0 0h100.331m329.127 193.714-.161-.243-.161-.243-.163-.245-.162-.246-.494-.744-.166-.25m1.307 1.971h-36.097m36.097 0h36.097m-70.302 1.902 1.377 1.384.45.453m-1.827-1.837-1.175-1.181-.717-.721m1.892 1.902h-35.466m37.293 1.837h-34.857m34.857 0 1.33 1.337.436.438m34.269 0 .144.218.571.861.423.637m-1.138-1.716h-34.269m34.269 0h34.268m-74.022-5.514-.241-.243-.243-.243-.243-.245-.245-.246-.988-.994m1.96 1.971h-36.097m2.523 1.902 1.835 1.384.601.453m-2.436-1.837-2.523-1.902m4.959 3.739 1.188.895.877.661.289.219m34.269 0 .216.218.43.432.428.429.211.213.422.424m-1.707-1.716h-34.269m-7.313-5.514-1.952-1.472-.662-.499m-24.342 7.485 2.143 1.292.702.424m-2.845-1.716h34.269m0 0 1.995 1.504.282.212m61.297-9.201h-36.75m36.75 0h36.75m-75.533-2.044 2.033 2.044m-2.033-2.044-2.11-2.12m2.11 2.12h-37.428m39.461 2.044h-36.751m110.251 0H720m-36.751 0 .654 1.971m-110.905-1.971-2.71-2.044m113.615 4.015H720m-114.394-6.135-.54-.543-.819-.824-.831-.835m2.19 2.202h-38.132m2.814 2.12-.347-.26-2.467-1.86m0 0-.358-.271-.361-.272-.362-.273-1.838-1.386m77.722 0-1.517-2.288m1.517 2.288h-38.861m38.861 0h38.862m-77.723 0-2.276-2.288m2.276 2.288h-38.861m0 0-2.265-1.707-.384-.29-.386-.291m79.24 0h-39.62m39.62 0h39.62m-81.606-2.378-.302-.304-.305-.306-.305-.307-1.551-1.559m2.463 2.476 1.195 1.201.295.296.293.296.583.585m-2.366-2.378h-40.409m42.775 2.378h-39.62m118.86 0H720m-39.62 0 .759 2.288m-119.619-2.288-3.155-2.378m122.774 4.666H720m-123.689-7.142-2.238-2.25-.326-.328m2.564 2.578h-41.229m3.283 2.476-.809-.61-2.474-1.866m0 0-1.266-.954-2.154-1.624m84.17 0-.883-1.329-.222-.337-.678-1.021m1.783 2.687h-42.085m42.085 0h42.083m-84.168 0-2.673-2.687m2.673 2.687h-42.085m0 0-3.563-2.687m85.95 0h-42.975m42.975 0h42.976m-88.74-2.803 2.789 2.803m-2.789-2.803-2.912-2.928m2.912 2.928H544.38m46.694 2.803h-42.975m128.926 0H720m-42.975 0 .226.682.445 1.344.219.661m-129.816-2.687-3.719-2.803m133.535 5.49H720m-134.627-8.418-2.27-2.282-.774-.777m3.044 3.059h-44.876m3.883 2.928-3.883-2.928m0 0-2.006-1.512-2.052-1.547m91.78 0-2.122-3.202m2.122 3.202h-45.89m45.89 0h45.891m-91.781 0-3.184-3.202m3.184 3.202h-45.89m0 0-4.246-3.202m93.904 0h-46.952m46.952 0h46.951m-97.239-3.353.849.853 2.487 2.5m-3.336-3.353-3.497-3.515m3.497 3.515h-48.063m51.399 3.353h-46.952m140.855 0H720m-46.952 0 1.062 3.202m-141.917-3.202-4.447-3.353m146.364 6.555H720M572.312 169.9l-3.671-3.691m3.671 3.691h-49.229m4.663 3.515-4.663-3.515m0 0-4.895-3.691m100.906 0-2.572-3.878m2.572 3.878h-50.453m50.453 0h50.453m-100.906 0-3.858-3.878m3.858 3.878h-50.453m0 0-5.144-3.878m103.478 0h-51.739m51.739 0h51.739m-107.538-4.081 4.06 4.081m-4.06-4.081-4.278-4.301m4.278 4.301h-53.092m57.152 4.081h-51.739m155.217 0H720m-51.739 0 1.129 3.404.157.474m-156.503-3.878-5.413-4.081m161.916 7.959H720m-163.555-12.26-4.514-4.538m4.514 4.538h-54.518m5.704 4.301-4.249-3.204-1.455-1.097m0 0-6.02-4.538m112.047 0-3.18-4.795m3.18 4.795h-56.023m56.023 0h56.023m-112.046 0-4.771-4.795m4.771 4.795h-56.024m0 0-6.36-4.795m115.227 0H547.16m57.614 0h57.613m-120.276-5.077 5.049 5.077m-5.049-5.077-5.353-5.381m5.353 5.381h-59.296m64.345 5.077h-57.613m172.84 0H720m-57.613 0 1.59 4.795m-174.43-4.795-6.732-5.077m181.162 9.872H720m-183.242-15.253-5.685-5.715m5.685 5.715h-61.081m7.138 5.381-7.138-5.381m0 0-7.58-5.715m125.951 0-4.033-6.081m4.033 6.081h-62.975m62.975 0h62.976m-125.951 0-6.05-6.081m6.05 6.081h-62.976m0 0-8.066-6.081m129.984 0h-64.992m64.992 0h64.993m-136.434-6.484 6.449 6.484m-6.449-6.484-6.891-6.927m6.891 6.927h-67.142m73.591 6.484h-64.992m194.977 0H720m-64.992 0 2.016 6.081m-196.993-6.081-8.599-6.484m205.592 12.565H720m-208.317-19.492-7.379-7.418m7.379 7.418h-69.439m9.188 6.927-9.188-6.927m0 0-9.839-7.418m143.798 0-5.281-7.963m5.281 7.963h-71.899m71.899 0h71.898m-143.797 0-7.921-7.963m7.921 7.963h-71.899m0 0-10.561-7.963m149.078 0h-74.539m74.539 0h74.539M487.858 85l8.525 8.57M487.858 85l-9.201-9.249m9.201 9.25h-77.381m85.906 8.57h-74.539m223.617 0H720m-74.539 0 2.64 7.962M421.844 93.57 410.477 85m237.624 16.533H720M478.657 75.751l-9.961-10.012m9.961 10.012h-80.448m12.268 9.25-12.268-9.25m0 0-13.28-10.012m167.535 0-7.211-10.875m7.211 10.875h-83.768m83.768 0h83.768m-167.536 0-10.817-10.875m10.817 10.875h-83.767m0 0-14.424-10.875m174.748 0h-87.374m87.374 0h87.373M446.088 43.011l11.791 11.853m-11.791-11.853-12.902-12.97m12.902 12.97h-91.304m103.095 11.853h-87.374m262.121 0H720m-87.374 0 3.606 10.875M370.505 54.864l-15.721-11.853M636.232 65.74H720M433.186 30.042 419.009 15.79m14.177 14.252h-95.605m17.203 12.97-17.203-12.97m0 0L318.679 15.79m200.661 0L508.905.056M519.34 15.79H419.009m100.331 0h100.33m-200.661 0L403.358.056m15.651 15.734h-100.33m0 0L297.81.056m105.548 0h105.547m-105.547 0H297.81m211.095 0h105.547m0 0H720m-105.548 0 5.218 15.734m0 0H720m72.194 193.714.161-.243.161-.243.163-.245.162-.246.329-.495.165-.249.166-.25m-1.307 1.971h-36.097m36.097 0h36.097m-72.825 1.902-.609 1.837m.609-1.837.631-1.902m-.631 1.902H720m34.857 1.837-.074.225-.075.224-.074.224-.366 1.102m.589-1.775H720m68.537 1.775-.144.218-.571.861-.423.637m1.138-1.716h-34.269m34.269 0h34.269m-66.709-5.514.081-.243.08-.243.082-.245.41-1.24m-.653 1.971H720m0 1.902v1.837m0-1.837v-1.902m0 3.739v1.775m34.268 0H720m34.268 0-.215.65-.072.215-.281.851m-33.7-7.23v-1.971m-34.269 7.485.215.65.072.215.071.214.071.213.07.212.07.212m-.569-1.716H720m0 0v1.716m73.501-9.201H756.75m36.751 0h36.75m-72.823-2.044.087-.26.086-.262.53-1.598m-.703 2.12-.678 2.044m.678-2.044H720m36.75 2.044H720m110.251 0h36.751m-36.751 0-.496.499-.247.248-.245.247-.246.246-.242.245-.243.243-.241.243M720 207.533v-2.044m108.291 4.015h36.097m-106.257-6.135.73-2.202m-.73 2.202H720m0 2.12v-2.12m0 0v-2.202m77.723 0 1.517-2.288m-1.517 2.288h-38.862m38.862 0h38.861m-77.723 0 .759-2.288m-.759 2.288H720m0 0v-2.288m79.24 0h-39.62m39.62 0h39.62m-78.452-2.378-.788 2.378m.788-2.378.821-2.476m-.821 2.476H720m39.62 2.378H720m118.86 0h39.62m-39.62 0-2.276 2.288M720 198.879v-2.378m116.584 4.666h38.861m-114.216-7.142.317-.954.321-.969.218-.655m-.856 2.578H720m0 2.476v-2.476m0 0v-2.578m84.168 0 .883-1.329.222-.337.678-1.021m-1.783 2.687h-42.083m42.083 0h42.085m-84.168 0 .218-.661.446-1.344.226-.682m-.89 2.687H720m0 0v-2.687m85.951 0h-42.976m42.976 0h42.975m-85.021-2.803-.118.357-.812 2.446m.93-2.803.97-2.928m-.97 2.928H720m42.975 2.803H720m128.926 0h42.975m-42.975 0-2.673 2.687M720 188.76v-2.803m126.253 5.49h42.085m-123.463-8.418 1.015-3.059m-1.015 3.059H720m0 2.928v-2.928m0 0v-3.059m91.781 0 2.122-3.202m-2.122 3.202H765.89m45.891 0h45.89m-91.781 0 1.062-3.202m-1.062 3.202H720m0 0v-3.202m93.903 0h-46.951m46.951 0h46.952m-92.792-3.353-1.111 3.353m1.111-3.353 1.166-3.515m-1.166 3.515H720m46.952 3.353H720m140.855 0h46.952m-46.952 0-3.184 3.202M720 176.768v-3.353m137.671 6.555h45.89M769.229 169.9l1.224-3.691m-1.224 3.691H720m0 3.515V169.9m0 0v-3.691m100.906 0 2.572-3.878m-2.572 3.878h-50.453m50.453 0h50.452m-100.905 0 1.286-3.878m-1.286 3.878H720m0 0v-3.878m103.478 0h-51.739m51.739 0h51.739m-102.125-4.081-1.353 4.081m1.353-4.081 1.426-4.301m-1.426 4.301H720m51.739 4.081H720m155.217 0h51.739m-51.739 0-3.859 3.878M720 162.331v-4.081m151.358 7.959h50.454m-147.294-12.26 1.505-4.538m-1.505 4.538H720m0 4.301v-4.301m0 0v-4.538m112.046 0 3.18-4.795m-3.18 4.795h-56.023m56.023 0h56.023m-112.046 0 1.59-4.795m-1.59 4.795H720m0 0v-4.795m115.226 0h-57.613m57.613 0h57.614m-113.544-5.077-1.683 5.077m1.683-5.077 1.785-5.381m-1.785 5.381H720m57.613 5.077H720m172.84 0h57.613m-57.613 0-4.771 4.795M720 144.616v-5.077m168.069 9.872h56.024m-163.012-15.253 1.895-5.715m-1.895 5.715H720m0 5.381v-5.381m0 0v-5.715m125.952 0 4.032-6.081m-4.032 6.081h-62.976m62.976 0h62.975m-125.951 0 2.016-6.081m-2.016 6.081H720m0 0v-6.081m129.984 0h-64.992m64.992 0h64.993m-127.835-6.484-2.15 6.484m2.15-6.484 2.297-6.927m-2.297 6.927H720m64.992 6.484H720m194.977 0h64.992m-64.992 0-6.05 6.081M720 122.362v-6.484m188.927 12.565h62.976m-182.464-19.492 2.46-7.418m-2.46 7.418H720m0 6.927v-6.927m0 0v-7.418m143.797 0 5.281-7.963m-5.281 7.963h-71.898m71.898 0h71.899m-143.797 0 2.64-7.963m-2.64 7.963H720m0 0V93.57m149.078 0h-74.539m74.539 0h74.539M797.381 85l-2.842 8.57m2.842-8.57 3.066-9.249m-3.066 9.25H720m74.539 8.57H720m223.617 0h74.543m-74.543 0-7.921 7.962M720 93.57V85m215.696 16.533h71.904M800.447 75.751l3.321-10.012m-3.321 10.012H720m0 9.25v-9.25m0 0V65.74m167.535 0 7.212-10.875m-7.212 10.875h-83.767m83.767 0h83.769m-167.536 0 3.606-10.875m-3.606 10.875H720m0 0V54.864m174.747 0h-87.373m87.373 0h87.374M811.304 43.011l-3.93 11.853m3.93-11.853 4.3-12.97m-4.3 12.97H720m87.374 11.853H720m262.121 0h87.369m-87.369 0L971.304 65.74M720 54.864V43.011M971.304 65.74h83.766M815.604 30.042l4.726-14.252m-4.726 14.252H720m0 12.97v-12.97m0 0V15.79m200.66 0L931.095.056M920.66 15.79H820.33m100.33 0h100.33m-200.66 0L825.548.056M820.33 15.79H720m0 0V.056m105.548 0h105.547m-105.547 0H720m211.095 0h105.545m0 0h105.55m-105.55 0-15.65 15.734m0 0h100.33M936.582 209.504l1.943-.977 1.978-.994m-3.921 1.971h-36.097m36.097 0h36.096m-75.347 1.902-3.045 1.837m3.045-1.837 3.154-1.902m-3.154 1.902h-35.466m32.421 1.837h-34.857m34.857 0-2.216 1.337-.727.438m34.269 0h-34.269m34.269 0-1.294.65-2.12 1.066m3.414-1.716h34.269m-59.396-5.514 3.267-1.971m-3.267 1.971h-36.097m-2.523 1.902-2.436 1.837m2.436-1.837 2.523-1.902m-4.959 3.739-1.188.895-.877.661-.289.219m34.268 0h-34.268m34.268 0-2.142 1.292-.702.424m-24.111-7.23 1.952-1.472.662-.499m-44.196 7.485-.216.218-.431.432-.638.642-.422.424m1.707-1.716h34.269m0 0-.289.218-.574.432-1.413 1.066m85.704-9.201h-36.751m36.751 0h36.751m-70.113-2.044-.431.26-.428.258-1.694 1.022-.836.504m3.389-2.044 2.624-1.582.892-.538m-3.516 2.12h-37.429m34.04 2.044h-36.75m110.252 0H1014m-36.746 0-3.447 1.485-1.129.486m-105.676-1.971 2.71-2.044m102.966 4.015h36.102m-98.123-6.135.448-.271.451-.272 1.365-.824.461-.277.925-.558m-3.65 2.202h-38.131m-2.814 2.12.347-.26 2.467-1.86m0 0 .358-.271.361-.272.362-.273 1.838-1.386m77.723 0 4.551-2.288m-4.551 2.288h-38.861m38.861 0h38.861m-77.722 0 3.793-2.288m-3.793 2.288h-38.862m0 0 3.035-2.288m79.239 0H918.1m39.619 0h39.62m-75.296-2.378-3.943 2.378m3.943-2.378 4.104-2.476m-4.104 2.476h-40.408m36.465 2.378h-39.62m118.859 0h39.621m-39.621 0-5.31 2.288m-113.549-2.288 3.155-2.378m110.394 4.666h38.861m-104.743-7.142 4.274-2.578m-4.274 2.578h-41.229m-3.283 2.476.808-.61 2.475-1.866m0 0 1.266-.954 1.286-.969.868-.655m84.168 0 2.645-1.329 2.701-1.358m-5.346 2.687h-42.085m42.085 0h42.084m-84.169 0 4.456-2.687m-4.456 2.687h-42.083m0 0 3.563-2.687m85.951 0h-42.975m42.975 0h42.978m-81.306-2.803-4.647 2.803m4.647-2.803 4.854-2.928m-4.854 2.928H895.62m39.257 2.803h-42.976m128.929 0h42.97m-42.97 0-6.24 2.687m-122.689-2.687 3.719-2.803m118.97 5.49h42.08m-112.292-8.418 1.247-.752 3.826-2.307m-5.073 3.059h-44.875m-3.883 2.928 3.883-2.928m0 0 .497-.375 1.509-1.137 2.052-1.547m91.78 0 6.369-3.202m-6.369 3.202h-45.89m45.89 0h45.889m-91.779 0 5.308-3.202m-5.308 3.202h-45.89m0 0 4.246-3.202m93.903 0h-46.951m46.951 0h46.95m-88.342-3.353-3.506 2.114-2.053 1.239m5.559-3.353 5.828-3.515m-5.828 3.515h-48.064m42.505 3.353h-46.952m140.853 0h46.95m-46.95 0-7.43 3.202m-133.423-3.202 4.447-3.353m128.976 6.555h45.89M966.146 169.9l6.119-3.691m-6.119 3.691h-49.229m-4.663 3.515 4.663-3.515m0 0 4.895-3.691m100.908 0 7.71-3.878m-7.71 3.878h-50.455m50.455 0h50.45m-100.905 0 6.43-3.878m-6.43 3.878h-50.453m0 0 5.144-3.878m103.474 0h-51.735m51.735 0h51.74m-96.709-4.081-6.766 4.081m6.766-4.081 7.13-4.301m-7.13 4.301h-53.092m46.326 4.081h-51.739m155.214 0h51.74m-51.74 0-9 3.878m-146.214-3.878 5.413-4.081m140.801 7.959h50.45m-131.029-12.26 7.529-4.538m-7.529 4.538h-54.518m-5.704 4.301 5.704-4.301m0 0 6.02-4.538m112.047 0 9.54-4.795m-9.54 4.795h-56.02m56.02 0h56.02m-112.04 0 7.95-4.795m-7.95 4.795h-56.027m0 0 6.36-4.795m115.227 0h-57.61m57.61 0h57.61m-106.81-5.076-8.41 5.076m8.41-5.076 8.92-5.382m-8.92 5.382-59.295-.001m50.885 5.077h-57.617m172.837 0h57.62m-57.62 0-11.13 4.795m-161.707-4.795 6.732-5.077m154.975 9.872h56.02m-142.78-15.253 9.48-5.715m-9.48 5.715h-61.077m-7.138 5.381 7.138-5.381m0 0 7.58-5.715m125.947 0 12.1-6.081m-12.1 6.081h-62.97m62.97 0h62.98m-125.95 0 10.08-6.081m-10.08 6.081h-62.977m0 0 8.066-6.081m129.981 0h-64.99m64.99 0h65m-119.24-6.484-10.75 6.484m10.75-6.484 11.49-6.927m-11.49 6.927h-67.142m56.392 6.484h-64.991m194.981 0h64.99m-64.99 0-14.12 6.081m-180.861-6.081 8.599-6.484m172.262 12.565h62.98m-156.61-19.492 12.29-7.418m-12.29 7.418h-69.444m-9.188 6.927 9.188-6.927m0 0 9.844-7.418m143.79 0 15.84-7.963m-15.84 7.963h-71.9m71.9 0h71.9m-143.8 0 13.21-7.963m-13.21 7.963h-71.89m0 0 10.56-7.963m149.07 0h-74.53m74.53 0h74.54M1106.9 85l-14.2 8.57m14.2-8.57 15.34-9.249m-15.34 9.25h-77.38m63.18 8.57h-74.54m223.61 0h74.54m-74.54 0-18.48 7.962m-205.13-7.963 11.36-8.57m193.77 16.533h71.9m-172.95-25.782 16.6-10.012m-16.6 10.012h-80.45m-12.27 9.25 12.27-9.25m0 0 13.28-10.012m167.54 0 21.63-10.875m-21.63 10.875h-83.77m83.77 0h83.76m-167.53 0 18.03-10.875m-18.03 10.875h-83.77m0 0 14.42-10.875m174.75 0h-87.37m87.37 0h87.38m-155.1-11.853-19.65 11.853m19.65-11.853 21.5-12.97m-21.5 12.97h-91.3m71.65 11.853h-87.38m262.13 0h87.37m-87.37 0-25.25 10.875m-236.88-10.875 15.73-11.853m221.15 22.728h83.77m-192.12-35.697 23.63-14.252m-23.63 14.252h-95.6m-17.2 12.97 17.2-12.97m0 0 18.9-14.252m200.66 0 31.3-15.734m-31.3 15.734h-100.33m100.33 0h100.33m-200.66 0L1247.74.056m-26.09 15.734h-100.33m0 0L1142.19.056m105.55 0h105.54m-105.54 0h-105.55m211.09 0h86.33m-17.3 15.734 17.3-7.454m-17.3 7.454h17.3m-358.64 193.714 6.54-1.971m-6.54 1.971h-36.1m36.1 0h36.1m-77.87 1.902-5.49 1.837m5.49-1.837 5.67-1.902m-5.67 1.902h-35.47m29.98 1.837h-34.853m34.853 0-5.29 1.775m34.27 0h-34.27m34.27 0-2.16.65-3.53 1.066m5.69-1.716h34.27m-52.09-5.514 5.88-1.971m-5.88 1.971h-36.09m-5.05 1.902-4.873 1.837m4.873-1.837 5.05-1.902m-9.923 3.739-3.546 1.337-1.162.438m34.271 0-.65.218-4.47 1.498m5.12-1.716h-34.271m14.631-5.514 5.22-1.971m-54.119 7.485-3.983 1.716m3.983-1.716h34.268m0 0-1.725.65-2.827 1.066m97.913-9.201h-36.76m36.76 0h36.75m-67.41-2.044-6.1 2.044m6.1-2.044 6.33-2.12m-6.33 2.12h-37.42m31.32 2.044H1014m110.26 0h36.75m-36.75 0-7.19 1.971M1014 207.533l5.43-2.044m97.64 4.015h36.09m-89.98-6.135 1.62-.543 4.95-1.659m-6.57 2.202h-38.13m-5.62 2.12 5.62-2.12m0 0 5.84-2.202m77.72 0 .94-.281 6.65-2.007m-7.59 2.288h-38.86m38.86 0h38.87m-77.73 0 6.83-2.288m-6.83 2.288h-38.86m0 0 .75-.281 5.32-2.007m79.24 0h-39.62m39.62 0h39.62m-72.14-2.378-7.1 2.378m7.1-2.378 7.39-2.476m-7.39 2.476h-40.41m33.31 2.378h-39.62m118.86 0h39.62m-39.62 0-8.34 2.288m-110.52-2.288 6.31-2.378m104.21 4.666h38.86m-95.27-7.142 7.69-2.578m-7.69 2.578h-41.23m-6.57 2.476 6.57-2.476m0 0 6.83-2.578m84.17 0 8.91-2.687m-8.91 2.687h-42.08m42.08 0h42.09m-84.17 0 8.02-2.687m-8.02 2.687h-42.09m0 0 7.13-2.687m85.95 0h-42.97m42.97 0h42.98m-77.59-2.803-8.36 2.803m8.36-2.803 8.74-2.928m-8.74 2.928h-43.9m35.54 2.803h-42.98m128.93 0h42.97m-42.97 0-9.8 2.687m-119.13-2.687 7.44-2.803m111.69 5.49h42.08m-101.13-8.418 9.13-3.059m-9.13 3.059H1079m-7.76 2.928 7.76-2.928m0 0 8.12-3.059m91.78 0 10.62-3.202m-10.62 3.202h-45.89m45.89 0h45.89m-91.78 0 9.56-3.202m-9.56 3.202h-45.89m0 0 8.49-3.202m93.91 0h-46.95m46.95 0h46.95m-83.9-3.353-10 3.353m10-3.353 10.49-3.515m-10.49 3.515h-48.06m38.06 3.353h-46.96m140.86 0h46.95m-46.95 0-11.68 3.202m-129.18-3.202 8.9-3.353m120.28 6.555h45.89m-107.62-10.07 11.02-3.691m-11.02 3.691h-49.23m-9.32 3.515 9.32-3.515m0 0 9.79-3.691m100.91 0 12.86-3.878m-12.86 3.878h-50.45m50.45 0h50.45m-100.9 0 11.57-3.878m-11.57 3.878h-50.46m0 0 10.29-3.878m103.48 0h-51.74m51.74 0h51.74m-91.3-4.081-12.18 4.081m12.18-4.081 12.83-4.301m-12.83 4.301h-53.09m40.91 4.081h-51.74m155.22 0h51.74m-51.74 0-14.15 3.878m-141.07-3.878 10.83-4.081m130.24 7.959h50.45m-114.77-12.26 13.55-4.538m-13.55 4.538h-54.51m-11.41 4.301 11.41-4.301m0 0 12.03-4.538m112.05 0 15.9-4.795m-15.9 4.795h-56.02m56.02 0h56.02m-112.04 0 14.31-4.795m-14.31 4.795h-56.03m0 0 12.73-4.795m115.22 0h-57.61m57.61 0h57.62m-100.08-5.076-15.15 5.076m15.15-5.076 16.06-5.382m-16.06 5.382h-59.3m44.15 5.076h-57.61m172.84 0h57.61m-57.61 0-17.5 4.795m-155.34-4.795 13.46-5.076m141.88 9.871h56.03m-122.55-15.253 17.05-5.715m-17.05 5.715h-61.08m-14.28 5.382 14.28-5.382m0 0 15.16-5.715m125.95 0 20.16-6.081m-20.16 6.081h-62.98m62.98 0h62.97m-125.95 0 18.15-6.081m-18.15 6.081h-62.97m0 0 16.13-6.081m129.98 0h-64.99m64.99 0h64.99m-110.63-6.484-19.35 6.484m19.35-6.484 20.67-6.927m-20.67 6.927h-67.14m47.79 6.484h-64.99m194.97 0-22.18 6.081m22.18-6.081h4.7m-4.7 0 4.7-1.288m-199.67 1.288 17.2-6.484m155.59 12.565h26.88m-94.66-19.492 22.14-7.418m-22.14 7.418h-69.44m-18.37 6.927 18.37-6.927m0 0 19.68-7.418m143.8 0h-71.9m71.9 0h.62m-.62 0 .62-.188m-72.52.188 23.76-7.963m-23.76 7.963h-71.9m0 0 21.12-7.963M1416.43 85l-25.58 8.57m25.58-8.57h-77.38m77.38 0h23.18m-23.18 0 23.18-7.768m-48.76 16.338h-74.54m74.54 0h48.76m-123.3 0 22.74-8.57m0 0 24.53-9.249m0 0 26.56-10.012m-26.56 10.012h76.03m-49.47-10.012 28.85-10.875m-28.85 10.875h49.47m-20.62-10.875h20.62m-20.62 0 20.62-7.774m-214.25 162.414 9.15-1.971m-9.15 1.971h-36.1m36.1 0h36.09m-80.39 1.902-7.92 1.837m7.92-1.837 8.2-1.902m-8.2 1.902h-35.47m27.55 1.837h-34.85m34.85 0-7.65 1.775m34.27 0h-34.27m34.27 0-7.96 1.716m7.96-1.716h34.27m-44.77-5.514 8.5-1.971m-8.5 1.971h-36.1m-7.57 1.902-7.3 1.837m7.3-1.837 7.57-1.902m-14.87 3.739-7.07 1.775m34.27 0-.94.218-6.45 1.498m7.39-1.716h-34.27m21.94-5.514 7.85-1.971m-64.05 7.485-6.26 1.716m6.26-1.716h34.26m0 0-.86.218-5.96 1.498m110.11-9.201h-36.75m36.75 0h36.75m-64.69-2.044-8.81 2.044m8.81-2.044 9.14-2.12m-9.14 2.12h-37.43m28.62 2.044h-36.75m110.25 0h36.75m-36.75 0-9.81 1.971m-100.44-1.971 8.13-2.044m92.31 4.015h36.1m-81.84-6.135 9.49-2.202m-9.49 2.202h-38.13m-8.44 2.12 1.04-.26 7.4-1.86m0 0 8.76-2.202m77.72 0 10.62-2.288m-10.62 2.288h-38.86m38.86 0h38.86m-77.72 0 9.86-2.288m-9.86 2.288h-38.86m0 0 9.1-2.288m79.24 0h-39.62m39.62 0h39.62m-68.99-2.378-10.25 2.378m10.25-2.378 10.67-2.476m-10.67 2.476h-40.41m30.16 2.378h-39.62m118.86 0h39.62m-39.62 0-11.38 2.288m-107.48-2.288 9.46-2.378m98.02 4.666h38.86m-85.8-7.142 11.12-2.578m-11.12 2.578h-41.23m-9.85 2.476 9.85-2.476m0 0 10.26-2.578m84.17 0 12.48-2.687m-12.48 2.687h-42.08m42.08 0h42.09m-84.17 0 11.58-2.687m-11.58 2.687h-42.09m0 0 10.69-2.687m85.96 0h-42.98m42.98 0h42.97m-73.87-2.803-12.08 2.803m12.08-2.803 12.62-2.927m-12.62 2.927h-43.9m31.82 2.803h-42.98m128.93 0h42.98m-42.98 0-13.36 2.687m-115.57-2.687 11.16-2.803m104.41 5.49h42.08m-89.97-8.417 13.19-3.06m-13.19 3.06-44.87-.001m-11.65 2.928 11.65-2.928m0 0 12.17-3.059m91.78 0 14.86-3.202m-14.86 3.202h-45.89m45.89 0h45.89m-91.78 0 13.8-3.202m-13.8 3.202h-45.89m0 0 12.74-3.202m93.9 0h-46.95m14.46-3.353-14.46 3.353m14.46-3.353 15.15-3.515m-15.15 3.515h-48.07m33.61 3.353h-46.95m0 0 13.34-3.353m111.59 6.555h31.26m-79.63-10.07 15.91-3.691m-15.91 3.691h-49.23m-13.99 3.515 13.99-3.515m0 0 14.68-3.691m100.91.001-50.45-.001m50.45.001h13.27m-13.27 0 13.27-2.859m-63.72 2.858 16.72-3.878m-16.72 3.878h-50.46m0 0 15.44-3.878m69.33-4.081-17.59 4.081m17.59-4.081 18.54-4.301m-18.54 4.301h-53.09m53.09 0h29.41m-47 4.081h-51.74m51.74 0h47m-98.74 0 16.24-4.081m82.65 5.069-.15.032m-10.87-9.402h-54.52m54.52 0h10.87m-10.87 0 10.87-2.522m-82.5 6.823 17.11-4.301m0 0 18.06-4.538m0 0 19.08-4.795m-19.08 4.795h47.33m-8.05-9.871-20.2 5.076m20.2-5.076h8.05m-8.05 0 8.05-2.025m-28.25 7.101h28.25m-69.87 64.888 11.77-1.971m-11.77 1.971h-36.09m36.09 0h36.1m-82.91 1.902-10.36 1.837m10.36-1.837 10.72-1.902m-10.72 1.902h-35.47m25.11 1.837h-34.86m34.86 0-10 1.775m34.27 0h-34.27m34.27 0-10.24 1.716m10.24-1.716h34.26m-37.45-5.514 11.11-1.971m-11.11 1.971h-36.1m-10.09 1.902-9.75 1.837m9.75-1.837 10.09-1.902m-19.84 3.739-9.41 1.775m34.27 0h-34.27m34.27 0-9.68 1.716m4.66-7.23 10.46-1.971m-73.98 7.485-8.53 1.716m8.53-1.716h34.27m0 0-9.1 1.716m122.31-9.201h-36.75m36.75 0h36.75m-61.98-2.044-11.52 2.044m11.52-2.044 11.95-2.12m-11.95 2.12h-37.43m25.91 2.044h-36.75m110.25 0-12.42 1.971m12.42-1.971h21.35m-131.6 0 10.84-2.044m86.99 4.015h33.77m-71.38-6.135 12.41-2.202m-12.41 2.202h-38.13m-11.25 2.12 11.25-2.12m0 0 11.68-2.202m77.72 0 13.66-2.288m-13.66 2.288h-38.86m38.86 0h20.11m-58.97 0 12.9-2.288m-12.9 2.288h-38.86m0 0 12.14-2.288m53.03-2.378-13.41 2.378m13.41-2.378 13.95-2.476m-13.95 2.476h-40.41m40.41 0h32.66m-46.07 2.378h39.62m-39.62 0h-39.62m79.24 0 6.45-1.081m-6.45 1.081h6.45m-85.69 0 12.62-2.378m54.36-2.476 14.53-2.578m-14.53 2.578h-41.23m41.23 0h18.71m-73.07 2.476 13.13-2.476m0 0 13.68-2.578m42.08 0h-42.08m42.08 0 4.18-.741m-4.18.741h4.18m-46.26 0 14.26-2.687m14.87-2.803-14.87 2.803m14.87-2.803 15.53-2.927m-15.53 2.927h17.13m-32 2.803h32m.23 0h-.23m-1.6-5.73h1.6m-1.6 0 1.6-.303m.39-.073-.39.073m-10.29 28.679-12.18 1.837m12.18-1.837h10.29m-10.29 0 10.29-1.551m-22.47 3.388-11.77 1.775m11.77-1.775h22.47m-68.51 1.775-10.81 1.716m10.81-1.716h34.27m0 0-11.38 1.716m11.38-1.716h34.24m-1191.406 1.716h-33.7m33.7 0h33.7m-59.144 1.659-2.038-.41-6.218-1.249m8.256 1.659h-33.15m24.894-1.659h-33.699m8.805 1.659-2.174-.41-1.094-.206-5.537-1.043m0 0h-33.7m0 0h-33.7m168.499 0h33.699m-202.198 0h-33.7m0 0 10.458 1.659m-10.458-1.659h-33.7m44.158 1.659h-33.15m325.99-1.659h-33.7m33.7 0h33.7m-61.346 1.659-1.494-.41-.753-.206-3.807-1.043m6.054 1.659h-33.149m27.095-1.659h-33.7m6.605 1.659-6.605-1.659m101.1 0h33.699m67.4 0h-33.7m33.7 0h33.699m-63.546 1.659-.475-.204-.476-.206-.479-.206-2.423-1.043m3.853 1.659h-33.149m29.296-1.659h-33.7m4.404 1.659-4.404-1.659m101.099 0h33.701m67.399 0h-33.7m33.7 0H686.3m-65.748 1.659-1.651-1.659m1.651 1.659h-33.15m31.499-1.659h-33.699m2.2 1.659-.271-.204-.272-.206-.274-.205-1.383-1.044m101.098 0H720m67.399 0H753.7m33.699 0h33.7m-67.95 1.659.551-1.659m-.551 1.659H720m33.7-1.659H720m0 1.659v-1.659m101.099 0h33.7m67.399 0h-33.699m33.699 0h33.7m-70.151 1.659.679-.41 1.376-.829.697-.42m-2.752 1.659h-33.149m35.901-1.659h-33.7m-2.201 1.659.271-.204.272-.206.274-.205 1.384-1.044m101.099 0h33.699m67.403 0h-33.7m33.7 0h33.7m-72.36 1.659 1.23-.41.61-.205 3.12-1.044m-4.96 1.659h-33.146m38.106-1.659h-33.703m-4.403 1.659.543-.204 3.86-1.455m101.103 0h33.7m67.4 0h-33.7m33.7 0h33.7m-74.56 1.659 1.77-.41.89-.205 4.5-1.044m-7.16 1.659h-33.15m40.31-1.659h-33.7m-6.61 1.659.82-.204 5.79-1.455m101.1 0h33.7m67.4 0h-33.71m33.71 0h33.69m-76.75 1.659 9.35-1.659m-9.35 1.659h-33.15m42.5-1.659h-33.69m-8.81 1.659 2.17-.41 1.1-.205 5.54-1.044m101.09 0h33.7m22.15 1.659 11.55-1.659m-11.55 1.659h-33.15m33.15 0h23.47m-11.92-1.659h-33.7m33.7 0 11.92-1.712m-11.92 1.712h11.92m-56.62 1.659 2.71-.41 8.29-1.249M57.014 218.393l-2.719-.41-8.29-1.249m0 0-33.699-.001m0 0L.387 215.022m11.92 1.711H.386m0-79.218v2.024m0-2.024v-3.357m0 5.381v5.076m0-10.457v-5.715m0 0v-6.081m0 54.406v3.202m0-3.202v-3.083m0 44.708v-1.66m0 0v-1.711m0 0-.029-.004h.03m0 .004v-.004m0 0v-1.775m0 0v-1.837m0 0v-1.551m0 0v-.351m0 0v-1.971m0 0v-2.044m0 0v-1.345m0 0v-.775m0 0v-2.202m0 0v-2.288m0 0v-1.081m0 0v-1.297m0 0v-2.476m0 0v-2.578m0 0v-.741m0 0v-1.946m0 0v-2.803m0 0v-2.928m0 0v-.302m0 0v-2.757m0-6.555V169.9m0 3.515v.27m0-3.785v-3.691m0 0v-2.858m0 0v-1.02m0 0v-4.081m0 0v-4.301m0 0v-2.523m0 0v-2.015m0 0v-4.796m0-22.253v-1.288m0 0v-5.196m0 0v-6.927m0 0v-7.418m0 0v-.188m0 0V93.57m0 0V85m0 0v-7.769m0 0v-1.48m0 0V65.74m0 0V54.864m0 0V47.09m0 0v-4.08m0 0V30.04m0 0V15.79m0 0V8.336m0 0V.056m0 0V0H1439.61v.056m0 173.359V169.9m0 3.515v.27m0 0v3.083m0 0v3.202m0 0v2.757m0 0v.303m0 0v2.927m0 0v2.803m0 0v1.946m0 0v.741m0 0v2.578m0 0v2.476m0 0v1.297m0 0v1.081m0 0v2.288m0 0v2.202m0 0v.775m0 0v1.345m0 0v2.044m0 0v1.971m0 0v.351m0 0v1.551m0 0v1.837m0 0v1.775m0 0h.03l-.03.004m0-.004v.004m0 0v1.712m0 0v1.659m0-218.337v8.28m0 0v7.454m0 0v14.252m0 0v12.97m0 0v4.078m0 0v7.774m0 0V65.74m0 0v10.01m0 0v1.48m0 0V85m0 0v8.57m0 0v7.774m0 0v.188m0 0v7.418m0 0v6.927m0 0v5.196m0 0v1.288m0 0v6.081m0 0v5.715m0 0v3.357m0 0v2.025m0 0v5.076m0 0v4.795m0 0v2.016m0 0v2.522m0 0v4.301m0 0v4.081m0 0v1.02m0 0v2.859m0 0v3.69"/><path fill="url(#c)" d="M0 0h1440v177H0z"/></g><defs><radialGradient id="b" cx="0" cy="0" r="1" gradientTransform="matrix(0 344.381 -2254.13 0 720 8.108)" gradientUnits="userSpaceOnUse"><stop stop-color="#3D3D3D"/><stop offset=".489" stop-color="#3D3D3D" stop-opacity="0"/></radialGradient><linearGradient id="c" x1="718.88" x2="718.88" y1="177" y2="-21.5" gradientUnits="userSpaceOnUse"><stop offset=".259" stop-color="#050505" stop-opacity="0"/><stop offset="1" stop-color="#050505"/></linearGradient><clipPath id="a"><path fill="#fff" d="M0 0h1440v220H0z"/></clipPath></defs></svg>